<?xml version="1.0" encoding="iso-8859-1"?>
<!-- Generator: Adobe Illustrator 16.0.0, SVG Export Plug-In . SVG Version: 6.00 Build 0)  -->
<!DOCTYPE svg PUBLIC "-//W3C//DTD SVG 1.1//EN" "http://www.w3.org/Graphics/SVG/1.1/DTD/svg11.dtd">
<svg version="1.1" id="Layer_1" xmlns="http://www.w3.org/2000/svg" xmlns:xlink="http://www.w3.org/1999/xlink" x="0px" y="0px"
	 width="131.215px" height="131.214px" viewBox="0 0 131.215 131.214" style="enable-background:new 0 0 131.215 131.214;"
	 xml:space="preserve">
<linearGradient id="SVGID_1_" gradientUnits="userSpaceOnUse" x1="0" y1="65.6069" x2="131.2148" y2="65.6069">
	<stop  offset="0" style="stop-color:#FFDE00"/>
	<stop  offset="0.5714" style="stop-color:#86AB71"/>
	<stop  offset="0.8791" style="stop-color:#EBABAB"/>
	<stop  offset="1" style="stop-color:#F37D21"/>
</linearGradient>
<path style="fill:url(#SVGID_1_);" d="M1.788,9.421l120.006,120.003l1.489,1.494l0.295,0.295l0.295-0.295l1.493-1.494l4.058-4.051
	l1.496-1.492l0.295-0.295l-0.295-0.295l-1.496-1.5L9.421,1.788L7.925,0.295L7.63,0L7.335,0.295l-1.49,1.493L1.788,5.845L0.295,7.338
	L0,7.633l0.295,0.294L1.788,9.421z M7.63,2.945l0.317,0.317l120.005,120.01l0.317,0.314l-0.317,0.314l-4.054,4.057l-0.313,0.312
	l-0.32-0.312L3.259,7.95L2.942,7.633l0.317-0.314l4.057-4.06L7.63,2.945z"/>
</svg>
