<?xml version="1.0" encoding="iso-8859-1"?>
<!-- Generator: Adobe Illustrator 16.0.0, SVG Export Plug-In . SVG Version: 6.00 Build 0)  -->
<!DOCTYPE svg PUBLIC "-//W3C//DTD SVG 1.1//EN" "http://www.w3.org/Graphics/SVG/1.1/DTD/svg11.dtd">
<svg version="1.1" id="Layer_1" xmlns="http://www.w3.org/2000/svg" xmlns:xlink="http://www.w3.org/1999/xlink" x="0px" y="0px"
	 width="218.754px" height="236.875px" viewBox="0 0 218.754 236.875" style="enable-background:new 0 0 218.754 236.875;"
	 xml:space="preserve">
<g>
</g>
<g>
	<g>
		<g>
			<g>
				<path style="fill:#FF4E17;" d="M197.183,236.875H21.571C9.677,236.875,0,226.473,0,213.686V23.188C0,10.402,9.677,0,21.571,0
					h175.611c11.895,0,21.571,10.402,21.571,23.188v190.498C218.754,226.473,209.077,236.875,197.183,236.875z M21.571,5
					C12.435,5,5,13.159,5,23.188v190.498c0,10.029,7.435,18.189,16.571,18.189h175.611c9.138,0,16.571-8.16,16.571-18.189V23.188
					C213.754,13.159,206.32,5,197.183,5H21.571z"/>
			</g>
		</g>
		<g>
			<g>
				<path style="fill:#FF4E17;" d="M140.578,104.295c-10.388,0-16.744,8.837-16.744,20.154c0,11.781,5.582,20.929,17.054,20.929
					c11.627,0,17.363-8.372,17.363-20.929C158.251,113.287,152.515,104.295,140.578,104.295z"/>
				<path style="fill:#FF4E17;" d="M140.888,146.378c-11.136,0-18.054-8.402-18.054-21.929c0-12.456,7.297-21.154,17.744-21.154
					c11.518,0,18.673,8.106,18.673,21.154C159.251,138.385,152.558,146.378,140.888,146.378z M140.578,105.295
					c-9.27,0-15.744,7.876-15.744,19.154c0,12.479,6.001,19.929,16.054,19.929c10.399,0,16.363-7.264,16.363-19.929
					C157.251,115.19,152.871,105.295,140.578,105.295z"/>
			</g>
			<g>
				<path style="fill:#FF4E17;" d="M81.021,117.102H59.606v69.486h21.414c5.973,0,11.071-2.33,14.567-5.826
					c7.283-7.283,7.43-19.521,7.43-28.989s-0.146-21.56-7.43-28.844C92.092,119.433,86.993,117.102,81.021,117.102z"/>
				<path style="fill:#FF4E17;" d="M81.021,187.588H58.606v-71.486h22.414c5.903,0,11.328,2.173,15.274,6.12
					c7.723,7.724,7.723,20.339,7.723,29.551c0,8.75,0,21.974-7.723,29.696C92.349,185.416,86.925,187.588,81.021,187.588z
					 M60.606,185.588h20.414c5.369,0,10.292-1.965,13.86-5.533c7.137-7.137,7.137-19.358,7.137-28.282
					c0-8.862,0-20.999-7.137-28.137c-3.569-3.568-8.491-5.534-13.86-5.534H60.606V185.588z"/>
			</g>
			<g>
				<path style="fill:#FF4E17;" d="M196.817,21.395H21.938c-10.489,0-18.992,8.504-18.992,18.993v174.877
					c0,10.486,8.503,18.992,18.992,18.992h174.879c10.486,0,18.99-8.506,18.99-18.992V40.387
					C215.808,29.899,207.304,21.395,196.817,21.395z M140.888,162.742c-7.314,0-13.633-1.87-18.89-5.147
					c-0.461,12.535-2.787,25.368-11.988,34.822c-6.847,7.139-17.189,11.07-28.989,11.07H40.814V100.204h40.206
					c8.174,0,15.645,1.891,21.742,5.423c0.144-15.201,1.607-32.92,11.925-43.964c5.892-6.201,13.488-10.853,26.355-10.853
					c11.007,0,19.068,3.566,24.649,8.837c6.046,5.736,9.146,13.487,9.146,19.844h-19.533c-0.311-3.256-1.706-6.201-3.721-8.217
					c-2.48-2.636-6.201-3.876-11.473-3.876c-5.116,0-8.062,1.861-10.696,4.342c-5.892,5.426-7.441,15.192-7.441,24.649
					c4.806-5.736,13.952-7.907,20.463-7.907c23.255,0,35.502,14.883,35.502,36.742C177.939,146.308,165.383,162.742,140.888,162.742
					z"/>
				<path style="fill:#FF4E17;" d="M196.817,235.256H21.938c-11.023,0-19.992-8.969-19.992-19.992V40.387
					c0-11.024,8.969-19.993,19.992-19.993h174.879c11.022,0,19.99,8.969,19.99,19.993v174.877
					C216.808,226.288,207.84,235.256,196.817,235.256z M21.938,22.395c-9.921,0-17.992,8.071-17.992,17.993v174.877
					c0,9.921,8.071,17.992,17.992,17.992h174.879c9.92,0,17.99-8.071,17.99-17.992V40.387c0-9.921-8.07-17.993-17.99-17.993H21.938z
					 M81.021,204.487H39.814V99.204h41.206c7.636,0,14.775,1.636,20.764,4.745c0.248-15.34,2.061-32.144,12.173-42.969
					c7.341-7.727,15.692-11.17,27.086-11.17c10.411,0,18.936,3.065,25.336,9.11c5.836,5.537,9.46,13.418,9.46,20.571v1h-21.442
					l-0.086-0.905c-0.28-2.93-1.531-5.701-3.433-7.604c-2.308-2.451-5.722-3.583-10.766-3.583c-4.722,0-7.417,1.627-10.011,4.069
					c-4.384,4.038-6.762,11.239-7.088,21.435c5.332-4.698,13.539-6.42,19.424-6.42c22.856,0,36.502,14.109,36.502,37.742
					c0,23.398-14.937,38.518-38.052,38.518c-6.63,0-12.663-1.492-17.962-4.44c-0.531,10.783-2.6,23.949-12.199,33.812
					C103.694,200.446,93.143,204.487,81.021,204.487z M41.814,202.487h39.206c11.572,0,21.611-3.822,28.268-10.763
					c9.631-9.896,11.316-23.457,11.711-34.167l0.063-1.725l1.465,0.913c5.317,3.315,11.494,4.996,18.36,4.996
					c22.237,0,36.052-13.993,36.052-36.518c0-22.381-12.897-35.742-34.502-35.742c-6.656,0-15.327,2.334-19.696,7.549l-1.767,2.109
					v-2.751c0-12.271,2.54-20.573,7.764-25.386c2.537-2.389,5.677-4.605,11.374-4.605c5.556,0,9.547,1.371,12.201,4.19
					c2.006,2.007,3.397,4.854,3.874,7.902h17.626c-0.319-6.351-3.633-13.207-8.81-18.118c-6.015-5.681-14.077-8.562-23.961-8.562
					c-13.841,0-20.968,5.633-25.631,10.542c-10.006,10.711-11.504,27.892-11.649,43.284l-0.016,1.716l-1.484-0.859
					c-5.973-3.459-13.318-5.288-21.242-5.288H41.814V202.487z"/>
			</g>
		</g>
	</g>
</g>
</svg>
