<?xml version="1.0" encoding="iso-8859-1"?>
<!-- Generator: Adobe Illustrator 16.0.0, SVG Export Plug-In . SVG Version: 6.00 Build 0)  -->
<!DOCTYPE svg PUBLIC "-//W3C//DTD SVG 1.1//EN" "http://www.w3.org/Graphics/SVG/1.1/DTD/svg11.dtd">
<svg version="1.1" id="Layer_1" xmlns="http://www.w3.org/2000/svg" xmlns:xlink="http://www.w3.org/1999/xlink" x="0px" y="0px"
	 width="669.063px" height="356.585px" viewBox="0 0 669.063 356.585" style="enable-background:new 0 0 669.063 356.585;"
	 xml:space="preserve">
<linearGradient id="SVGID_1_" gradientUnits="userSpaceOnUse" x1="519.5225" y1="206.2515" x2="559.5088" y2="206.2515">
	<stop  offset="0" style="stop-color:#FFDE00"/>
	<stop  offset="0.5714" style="stop-color:#86AB71"/>
	<stop  offset="0.8791" style="stop-color:#EBABAB"/>
	<stop  offset="1" style="stop-color:#F37D21"/>
</linearGradient>
<path style="fill:url(#SVGID_1_);" d="M521.938,186.348l-0.089-0.09l-0.09,0.09l-0.456,0.456l-1.235,1.235l-0.455,0.455l-0.09,0.09
	l0.09,0.09l0.455,0.455l36.57,36.57l0.456,0.457l0.09,0.088l0.09-0.088l0.456-0.457l1.235-1.234l0.454-0.455l0.09-0.09l-0.09-0.09
	l-0.454-0.457l-36.571-36.569L521.938,186.348z M557.184,225.349l-0.098-0.097l-36.568-36.571l-0.098-0.097l0.098-0.097l1.234-1.235
	l0.098-0.097l0.097,0.097l36.57,36.571l0.097,0.096l-0.097,0.098l-1.235,1.235L557.184,225.349z"/>
<linearGradient id="SVGID_2_" gradientUnits="userSpaceOnUse" x1="525.1133" y1="248.5366" x2="565.1016" y2="248.5366">
	<stop  offset="0" style="stop-color:#FFDE00"/>
	<stop  offset="0.5714" style="stop-color:#86AB71"/>
	<stop  offset="0.8791" style="stop-color:#EBABAB"/>
	<stop  offset="1" style="stop-color:#F37D21"/>
</linearGradient>
<path style="fill:url(#SVGID_2_);" d="M562.686,268.44l0.09,0.09l0.09-0.09l0.455-0.454l1.234-1.238l0.457-0.454l0.09-0.09
	l-0.09-0.09l-0.457-0.455l-36.569-36.571l-0.456-0.456l-0.09-0.089l-0.089,0.089l-0.456,0.456l-1.235,1.235l-0.455,0.455
	l-0.091,0.09l0.091,0.091l0.455,0.455l36.571,36.572L562.686,268.44z M527.439,229.439l0.099,0.097l36.569,36.571l0.096,0.098
	l-0.096,0.096l-1.235,1.236l-0.096,0.098l-0.098-0.098l-36.571-36.57l-0.097-0.099l0.097-0.095l1.235-1.237L527.439,229.439z"/>
<linearGradient id="SVGID_3_" gradientUnits="userSpaceOnUse" x1="566" y1="209.396" x2="605.9863" y2="209.396">
	<stop  offset="0" style="stop-color:#FFDE00"/>
	<stop  offset="0.5714" style="stop-color:#86AB71"/>
	<stop  offset="0.8791" style="stop-color:#EBABAB"/>
	<stop  offset="1" style="stop-color:#F37D21"/>
</linearGradient>
<path style="fill:url(#SVGID_3_);" d="M568.416,189.493l-0.09-0.09l-0.09,0.09l-0.455,0.457l-1.235,1.235l-0.456,0.454l-0.09,0.09
	l0.09,0.09l0.456,0.455l36.57,36.571l0.456,0.455l0.09,0.089l0.089-0.089l0.455-0.455l1.235-1.235l0.455-0.455l0.09-0.09l-0.09-0.09
	l-0.455-0.456l-36.57-36.569L568.416,189.493z M603.662,228.494l-0.097-0.097l-36.571-36.571l-0.099-0.097l0.099-0.097l1.235-1.235
	l0.097-0.098l0.097,0.098l36.571,36.57l0.096,0.098l-0.096,0.097l-1.236,1.235L603.662,228.494z"/>
<linearGradient id="SVGID_4_" gradientUnits="userSpaceOnUse" x1="581.376" y1="261.1167" x2="621.3623" y2="261.1167">
	<stop  offset="0" style="stop-color:#FFDE00"/>
	<stop  offset="0.5714" style="stop-color:#86AB71"/>
	<stop  offset="0.8791" style="stop-color:#EBABAB"/>
	<stop  offset="1" style="stop-color:#F37D21"/>
</linearGradient>
<path style="fill:url(#SVGID_4_);" d="M618.946,281.019l0.09,0.092l0.092-0.092l0.455-0.455l1.234-1.235l0.455-0.454l0.09-0.09
	l-0.09-0.091l-0.454-0.454l-36.571-36.571l-0.455-0.456l-0.09-0.09l-0.09,0.09l-0.455,0.456l-1.234,1.235l-0.457,0.455l-0.09,0.09
	l0.09,0.09l0.455,0.455l36.57,36.57L618.946,281.019z M583.702,242.02l0.097,0.097l36.57,36.569l0.098,0.099l-0.098,0.097
	l-1.235,1.235l-0.098,0.096l-0.096-0.096l-36.572-36.572l-0.096-0.096l0.098-0.097l1.234-1.235L583.702,242.02z"/>
<linearGradient id="SVGID_5_" gradientUnits="userSpaceOnUse" x1="560.2041" y1="305.5444" x2="600.1904" y2="305.5444">
	<stop  offset="0" style="stop-color:#FFDE00"/>
	<stop  offset="0.5714" style="stop-color:#86AB71"/>
	<stop  offset="0.8791" style="stop-color:#EBABAB"/>
	<stop  offset="1" style="stop-color:#F37D21"/>
</linearGradient>
<path style="fill:url(#SVGID_5_);" d="M560.749,288.422l36.572,36.57l0.454,0.457l0.09,0.09l0.09-0.09l0.454-0.455l1.237-1.236
	l0.455-0.455l0.089-0.09l-0.089-0.09l-0.455-0.455l-36.572-36.571l-0.454-0.456l-0.09-0.091l-0.09,0.091l-0.457,0.456l-1.235,1.235
	l-0.454,0.455l-0.09,0.09l0.09,0.091L560.749,288.422z M597.865,324.643l-0.097-0.099l-36.571-36.569l-0.097-0.098l0.096-0.097
	l1.235-1.235l0.099-0.097l0.096,0.096l36.571,36.572l0.098,0.098l-0.098,0.097l-1.236,1.234L597.865,324.643z"/>
<linearGradient id="SVGID_6_" gradientUnits="userSpaceOnUse" x1="510.7002" y1="301.7563" x2="550.6875" y2="301.7563">
	<stop  offset="0" style="stop-color:#FFDE00"/>
	<stop  offset="0.5714" style="stop-color:#86AB71"/>
	<stop  offset="0.8791" style="stop-color:#EBABAB"/>
	<stop  offset="1" style="stop-color:#F37D21"/>
</linearGradient>
<path style="fill:url(#SVGID_6_);" d="M548.272,321.66l0.09,0.089l0.089-0.089l0.456-0.455l1.235-1.236l0.455-0.454l0.09-0.09
	l-0.09-0.089l-0.455-0.456l-36.571-36.571l-0.457-0.454l-0.088-0.09l-0.09,0.09l-0.455,0.454l-1.235,1.235L510.791,284l-0.091,0.09
	l0.091,0.089l0.455,0.455l36.571,36.571L548.272,321.66z M513.123,282.755l36.571,36.571l0.097,0.098l-0.097,0.097l-1.236,1.236
	l-0.096,0.097l-0.097-0.097l-36.572-36.571l-0.097-0.097l0.097-0.099l1.235-1.235l0.099-0.097L513.123,282.755z"/>
<linearGradient id="SVGID_7_" gradientUnits="userSpaceOnUse" x1="478.2881" y1="241.897" x2="518.2734" y2="241.897">
	<stop  offset="0" style="stop-color:#FFDE00"/>
	<stop  offset="0.5714" style="stop-color:#86AB71"/>
	<stop  offset="0.8791" style="stop-color:#EBABAB"/>
	<stop  offset="1" style="stop-color:#F37D21"/>
</linearGradient>
<path style="fill:url(#SVGID_7_);" d="M478.833,224.773l36.57,36.571l0.455,0.456l0.09,0.091l0.09-0.091l0.455-0.456l1.237-1.235
	l0.453-0.457l0.09-0.088l-0.09-0.09l-0.453-0.456l-36.571-36.571l-0.457-0.455l-0.09-0.089l-0.09,0.089l-0.454,0.455l-1.235,1.236
	l-0.455,0.455l-0.09,0.09l0.09,0.09L478.833,224.773z M480.612,222.798l0.099,0.098l36.569,36.57l0.097,0.099l-0.097,0.097
	l-1.234,1.235l-0.098,0.097l-0.097-0.097l-36.571-36.572l-0.096-0.096l0.096-0.098l1.235-1.235L480.612,222.798z"/>
<linearGradient id="SVGID_8_" gradientUnits="userSpaceOnUse" x1="458.3691" y1="183.8862" x2="498.3535" y2="183.8862">
	<stop  offset="0" style="stop-color:#FFDE00"/>
	<stop  offset="0.5714" style="stop-color:#86AB71"/>
	<stop  offset="0.8791" style="stop-color:#EBABAB"/>
	<stop  offset="1" style="stop-color:#F37D21"/>
</linearGradient>
<path style="fill:url(#SVGID_8_);" d="M495.94,203.791l0.09,0.089l0.09-0.089l0.455-0.455l1.235-1.235l0.454-0.455l0.089-0.09
	l-0.089-0.09l-0.454-0.456l-36.571-36.572l-0.455-0.454l-0.09-0.09l-0.09,0.09l-0.456,0.456l-1.234,1.235l-0.456,0.455l-0.089,0.09
	l0.089,0.09l0.456,0.457l36.569,36.569L495.94,203.791z M460.693,164.791l0.097,0.097l36.572,36.569l0.097,0.099l-0.097,0.097
	l-1.234,1.235l-0.098,0.096l-0.097-0.097l-36.573-36.567l-0.096-0.098l0.098-0.098l1.234-1.237L460.693,164.791z"/>
<linearGradient id="SVGID_9_" gradientUnits="userSpaceOnUse" x1="495.0605" y1="153.8335" x2="535.0479" y2="153.8335">
	<stop  offset="0" style="stop-color:#FFDE00"/>
	<stop  offset="0.5714" style="stop-color:#86AB71"/>
	<stop  offset="0.8791" style="stop-color:#EBABAB"/>
	<stop  offset="1" style="stop-color:#F37D21"/>
</linearGradient>
<path style="fill:url(#SVGID_9_);" d="M534.503,170.957l-36.57-36.571l-0.456-0.455l-0.09-0.09l-0.09,0.09l-0.455,0.455
	l-1.236,1.234l-0.455,0.457l-0.09,0.09l0.09,0.09l0.455,0.455l36.57,36.571l0.456,0.455l0.09,0.089l0.091-0.089l0.455-0.455
	l1.235-1.235l0.455-0.456l0.09-0.09l-0.09-0.09L534.503,170.957z M532.722,172.93l-0.095-0.097l-36.571-36.571l-0.098-0.097
	l0.098-0.096l1.235-1.236l0.096-0.097l0.096,0.097l36.572,36.571l0.097,0.097l-0.097,0.096l-1.235,1.236L532.722,172.93z"/>
<linearGradient id="SVGID_10_" gradientUnits="userSpaceOnUse" x1="537.6953" y1="151.7363" x2="577.6836" y2="151.7363">
	<stop  offset="0" style="stop-color:#FFDE00"/>
	<stop  offset="0.5714" style="stop-color:#86AB71"/>
	<stop  offset="0.8791" style="stop-color:#EBABAB"/>
	<stop  offset="1" style="stop-color:#F37D21"/>
</linearGradient>
<path style="fill:url(#SVGID_10_);" d="M577.137,168.86l-36.572-36.571l-0.454-0.456l-0.09-0.089l-0.09,0.089l-0.455,0.456
	l-1.236,1.235l-0.455,0.454l-0.089,0.091l0.089,0.09l0.455,0.456l36.571,36.57l0.456,0.455l0.09,0.089l0.09-0.089l0.454-0.455
	l1.235-1.234l0.456-0.456l0.092-0.09l-0.09-0.09L577.137,168.86z M575.356,170.834l-0.098-0.097l-36.57-36.572l-0.095-0.095
	l0.096-0.1l1.234-1.235l0.096-0.096l0.096,0.097l36.573,36.571l0.097,0.097l-0.097,0.098l-1.235,1.235L575.356,170.834z"/>
<linearGradient id="SVGID_11_" gradientUnits="userSpaceOnUse" x1="586.2686" y1="165.0161" x2="626.2539" y2="165.0161">
	<stop  offset="0" style="stop-color:#FFDE00"/>
	<stop  offset="0.5714" style="stop-color:#86AB71"/>
	<stop  offset="0.8791" style="stop-color:#EBABAB"/>
	<stop  offset="1" style="stop-color:#F37D21"/>
</linearGradient>
<path style="fill:url(#SVGID_11_);" d="M588.683,145.113l-0.089-0.09l-0.089,0.09l-0.455,0.455l-1.236,1.234l-0.456,0.457
	l-0.089,0.09l0.089,0.089l0.457,0.455l36.569,36.572l0.457,0.455l0.089,0.089l0.089-0.089l0.456-0.455l1.235-1.235l0.455-0.457
	l0.089-0.089l-0.089-0.089l-0.455-0.456l-36.57-36.572L588.683,145.113z M623.93,184.115l-0.1-0.097l-36.568-36.572l-0.098-0.097
	l0.098-0.1l1.235-1.233l0.098-0.099l0.099,0.099l36.568,36.572l0.097,0.097l-0.097,0.098l-1.235,1.235L623.93,184.115z"/>
<linearGradient id="SVGID_12_" gradientUnits="userSpaceOnUse" x1="566.3496" y1="113.2969" x2="606.3369" y2="113.2969">
	<stop  offset="0" style="stop-color:#FFDE00"/>
	<stop  offset="0.5714" style="stop-color:#86AB71"/>
	<stop  offset="0.8791" style="stop-color:#EBABAB"/>
	<stop  offset="1" style="stop-color:#F37D21"/>
</linearGradient>
<path style="fill:url(#SVGID_12_);" d="M566.895,96.175l36.571,36.57l0.455,0.454l0.089,0.09l0.09-0.09l0.455-0.454l1.236-1.236
	l0.456-0.454l0.09-0.09l-0.09-0.09l-0.456-0.455L569.22,93.849l-0.454-0.456l-0.09-0.089l-0.089,0.089l-0.457,0.456l-1.235,1.235
	l-0.456,0.454l-0.089,0.09l0.089,0.09L566.895,96.175z M567.246,95.628l0.098-0.096l1.235-1.235l0.097-0.097l0.097,0.097
	l36.57,36.571l0.098,0.097l-0.098,0.097l-1.234,1.233l-0.099,0.097l-0.096-0.097l-36.57-36.569L567.246,95.628z"/>
<linearGradient id="SVGID_13_" gradientUnits="userSpaceOnUse" x1="504.8467" y1="92.3306" x2="544.833" y2="92.3306">
	<stop  offset="0" style="stop-color:#FFDE00"/>
	<stop  offset="0.5714" style="stop-color:#86AB71"/>
	<stop  offset="0.8791" style="stop-color:#EBABAB"/>
	<stop  offset="1" style="stop-color:#F37D21"/>
</linearGradient>
<path style="fill:url(#SVGID_13_);" d="M505.391,75.207l36.572,36.572l0.455,0.454l0.09,0.091l0.089-0.091l0.455-0.455l1.235-1.235
	l0.456-0.455l0.09-0.09l-0.09-0.089l-0.456-0.455l-36.571-36.572l-0.456-0.456l-0.089-0.088l-0.089,0.088l-0.455,0.456l-1.238,1.235
	l-0.454,0.456l-0.088,0.089l0.088,0.089L505.391,75.207z M542.508,111.429l-0.098-0.099l-36.572-36.571l-0.098-0.097l0.098-0.098
	l1.235-1.235l0.098-0.099l0.097,0.098l36.572,36.572l0.099,0.097l-0.099,0.098l-1.235,1.235L542.508,111.429z"/>
<linearGradient id="SVGID_14_" gradientUnits="userSpaceOnUse" x1="466.4053" y1="90.5825" x2="506.3926" y2="90.5825">
	<stop  offset="0" style="stop-color:#FFDE00"/>
	<stop  offset="0.5714" style="stop-color:#86AB71"/>
	<stop  offset="0.8791" style="stop-color:#EBABAB"/>
	<stop  offset="1" style="stop-color:#F37D21"/>
</linearGradient>
<path style="fill:url(#SVGID_14_);" d="M505.847,107.706l-36.57-36.569l-0.454-0.457l-0.091-0.09l-0.089,0.09l-0.455,0.457
	l-1.235,1.235l-0.457,0.454l-0.09,0.09l0.09,0.09l0.457,0.454l36.569,36.571l0.456,0.455l0.09,0.09l0.089-0.09l0.456-0.455
	l1.234-1.235l0.456-0.456l0.09-0.09l-0.09-0.09L505.847,107.706z M504.068,109.68l-0.097-0.097l-36.572-36.571l-0.097-0.097
	l0.095-0.097l1.237-1.238l0.097-0.097l0.098,0.097l36.571,36.572l0.096,0.097l-0.096,0.098l-1.236,1.236L504.068,109.68z"/>
<linearGradient id="SVGID_15_" gradientUnits="userSpaceOnUse" x1="444.7402" y1="134.2646" x2="484.7266" y2="134.2646">
	<stop  offset="0" style="stop-color:#FFDE00"/>
	<stop  offset="0.5714" style="stop-color:#86AB71"/>
	<stop  offset="0.8791" style="stop-color:#EBABAB"/>
	<stop  offset="1" style="stop-color:#F37D21"/>
</linearGradient>
<path style="fill:url(#SVGID_15_);" d="M447.154,114.361l-0.09-0.09l-0.089,0.09l-0.455,0.455l-1.235,1.236l-0.457,0.455
	l-0.088,0.09l0.088,0.09l0.457,0.454l36.57,36.572l0.456,0.455l0.09,0.09l0.089-0.09l0.455-0.455l1.235-1.235l0.456-0.457
	l0.09-0.088l-0.09-0.09l-0.456-0.456l-36.571-36.571L447.154,114.361z M447.064,115.167l0.097,0.098l36.573,36.569l0.094,0.097
	l-0.094,0.098l-1.237,1.235l-0.097,0.097l-0.097-0.097l-36.571-36.571l-0.096-0.096l0.096-0.096l1.235-1.236L447.064,115.167z"/>
<linearGradient id="SVGID_16_" gradientUnits="userSpaceOnUse" x1="425.1699" y1="82.8945" x2="465.1572" y2="82.8945">
	<stop  offset="0" style="stop-color:#FFDE00"/>
	<stop  offset="0.5714" style="stop-color:#86AB71"/>
	<stop  offset="0.8791" style="stop-color:#EBABAB"/>
	<stop  offset="1" style="stop-color:#F37D21"/>
</linearGradient>
<path style="fill:url(#SVGID_16_);" d="M464.612,100.018l-36.571-36.572l-0.455-0.455l-0.089-0.09l-0.09,0.088l-0.457,0.457
	l-1.235,1.235l-0.456,0.457l-0.089,0.09l0.09,0.088l0.455,0.456l36.571,36.569l0.454,0.457l0.09,0.09l0.089-0.09l0.456-0.455
	l1.237-1.236l0.455-0.455l0.09-0.09l-0.09-0.089L464.612,100.018z M464.261,100.562l-0.099,0.097l-1.232,1.235l-0.099,0.098
	l-0.098-0.098l-36.57-36.569l-0.097-0.1l0.096-0.095l1.236-1.237l0.099-0.096l0.096,0.096l36.571,36.572L464.261,100.562z"/>
<linearGradient id="SVGID_17_" gradientUnits="userSpaceOnUse" x1="517.4258" y1="52.4927" x2="557.4131" y2="52.4927">
	<stop  offset="0" style="stop-color:#FFDE00"/>
	<stop  offset="0.5714" style="stop-color:#86AB71"/>
	<stop  offset="0.8791" style="stop-color:#EBABAB"/>
	<stop  offset="1" style="stop-color:#F37D21"/>
</linearGradient>
<path style="fill:url(#SVGID_17_);" d="M517.971,35.369l36.571,36.571l0.455,0.456l0.091,0.09l0.088-0.09l0.456-0.456l1.236-1.235
	l0.455-0.456l0.09-0.089l-0.09-0.089l-0.455-0.456l-36.571-36.57l-0.456-0.455l-0.09-0.089l-0.09,0.089l-0.456,0.455l-1.234,1.235
	l-0.455,0.456l-0.09,0.089l0.09,0.09L517.971,35.369z M555.088,71.589l-0.098-0.098l-36.571-36.57l-0.097-0.097l0.097-0.096
	l1.236-1.237l0.097-0.097l0.097,0.097l36.571,36.572l0.098,0.097l-0.098,0.097l-1.235,1.234L555.088,71.589z"/>
<linearGradient id="SVGID_18_" gradientUnits="userSpaceOnUse" x1="567.3984" y1="60.5288" x2="607.3857" y2="60.5288">
	<stop  offset="0" style="stop-color:#FFDE00"/>
	<stop  offset="0.5714" style="stop-color:#86AB71"/>
	<stop  offset="0.8791" style="stop-color:#EBABAB"/>
	<stop  offset="1" style="stop-color:#F37D21"/>
</linearGradient>
<path style="fill:url(#SVGID_18_);" d="M567.943,43.408l36.57,36.568l0.456,0.457l0.09,0.09l0.089-0.09l0.456-0.457l1.235-1.233
	l0.456-0.456l0.09-0.09l-0.09-0.089l-0.456-0.455l-36.572-36.572l-0.454-0.457l-0.09-0.09l-0.089,0.09l-0.457,0.457l-1.234,1.236
	l-0.455,0.456l-0.09,0.09l0.09,0.089L567.943,43.408z M569.724,41.433l0.097,0.096L606.392,78.1l0.097,0.097l-0.097,0.097
	l-1.236,1.235l-0.096,0.098l-0.097-0.098l-36.572-36.57l-0.096-0.096l0.096-0.097l1.235-1.236L569.724,41.433z"/>
<linearGradient id="SVGID_19_" gradientUnits="userSpaceOnUse" x1="451.5537" y1="28.0293" x2="491.542" y2="28.0293">
	<stop  offset="0" style="stop-color:#FFDE00"/>
	<stop  offset="0.5714" style="stop-color:#86AB71"/>
	<stop  offset="0.8791" style="stop-color:#EBABAB"/>
	<stop  offset="1" style="stop-color:#F37D21"/>
</linearGradient>
<path style="fill:url(#SVGID_19_);" d="M452.1,10.907l36.569,36.571l0.456,0.455l0.09,0.09l0.09-0.09l0.455-0.455l1.236-1.235
	l0.456-0.456l0.09-0.09l-0.09-0.09l-0.456-0.455l-36.57-36.571l-0.457-0.457l-0.09-0.089l-0.089,0.089l-0.456,0.457L452.1,9.817
	l-0.455,0.456l-0.091,0.09l0.091,0.09L452.1,10.907z M453.879,8.934l0.096,0.096l36.573,36.573l0.097,0.096l-0.097,0.096
	l-1.236,1.236l-0.096,0.096l-0.097-0.096l-36.571-36.571l-0.097-0.096l0.097-0.098l1.234-1.236L453.879,8.934z"/>
<linearGradient id="SVGID_20_" gradientUnits="userSpaceOnUse" x1="411.0166" y1="32.2241" x2="451.0039" y2="32.2241">
	<stop  offset="0" style="stop-color:#FFDE00"/>
	<stop  offset="0.5714" style="stop-color:#86AB71"/>
	<stop  offset="0.8791" style="stop-color:#EBABAB"/>
	<stop  offset="1" style="stop-color:#F37D21"/>
</linearGradient>
<path style="fill:url(#SVGID_20_);" d="M411.562,15.102l36.57,36.57l0.456,0.456l0.09,0.09l0.09-0.09l0.455-0.456l1.235-1.234
	l0.455-0.456l0.09-0.09l-0.09-0.09l-0.455-0.455l-36.571-36.572l-0.455-0.455l-0.089-0.089l-0.09,0.089l-0.456,0.455l-1.235,1.237
	l-0.456,0.456l-0.09,0.09l0.09,0.089L411.562,15.102z M413.439,13.224l36.571,36.571l0.097,0.096l-0.097,0.098l-1.235,1.235
	l-0.099,0.097l-0.095-0.097l-36.57-36.57l-0.097-0.096l0.097-0.098l1.234-1.235l0.098-0.096L413.439,13.224z"/>
<linearGradient id="SVGID_21_" gradientUnits="userSpaceOnUse" x1="361.9189" y1="19.9927" x2="401.9053" y2="19.9927">
	<stop  offset="0" style="stop-color:#FFDE00"/>
	<stop  offset="0.5714" style="stop-color:#86AB71"/>
	<stop  offset="0.8791" style="stop-color:#EBABAB"/>
	<stop  offset="1" style="stop-color:#F37D21"/>
</linearGradient>
<path style="fill:url(#SVGID_21_);" d="M362.464,2.87l36.571,36.571l0.455,0.455l0.089,0.089l0.092-0.089l0.454-0.455l1.235-1.236
	l0.456-0.455l0.089-0.089l-0.089-0.089l-0.456-0.456L364.789,0.544l-0.455-0.455L364.245,0l-0.09,0.089l-0.457,0.455l-1.234,1.235
	l-0.455,0.456l-0.09,0.09l0.09,0.089L362.464,2.87z M364.244,0.895l0.097,0.097l36.572,36.572l0.097,0.097l-0.097,0.097
	l-1.235,1.236l-0.099,0.097l-0.096-0.097L362.911,2.422l-0.096-0.096l0.096-0.098l1.236-1.236L364.244,0.895z"/>
<linearGradient id="SVGID_22_" gradientUnits="userSpaceOnUse" x1="380.0908" y1="72.0615" x2="420.0762" y2="72.0615">
	<stop  offset="0" style="stop-color:#FFDE00"/>
	<stop  offset="0.5714" style="stop-color:#86AB71"/>
	<stop  offset="0.8791" style="stop-color:#EBABAB"/>
	<stop  offset="1" style="stop-color:#F37D21"/>
</linearGradient>
<path style="fill:url(#SVGID_22_);" d="M419.532,89.183l-36.571-36.57l-0.455-0.456l-0.091-0.09l-0.09,0.09l-0.456,0.456
	l-1.234,1.236l-0.455,0.455l-0.089,0.09l0.089,0.09l0.455,0.455l36.572,36.57l0.456,0.457l0.09,0.09l0.09-0.093l0.454-0.454
	l1.235-1.234l0.455-0.455l0.089-0.09l-0.089-0.09L419.532,89.183z M417.753,91.157l-0.097-0.097l-36.572-36.57l-0.096-0.096
	l0.096-0.095l1.236-1.238l0.095-0.096l0.097,0.097l36.571,36.572l0.097,0.096l-0.097,0.096l-1.235,1.235L417.753,91.157z"/>
<linearGradient id="SVGID_23_" gradientUnits="userSpaceOnUse" x1="391.2725" y1="123.4312" x2="431.2598" y2="123.4312">
	<stop  offset="0" style="stop-color:#FFDE00"/>
	<stop  offset="0.5714" style="stop-color:#86AB71"/>
	<stop  offset="0.8791" style="stop-color:#EBABAB"/>
	<stop  offset="1" style="stop-color:#F37D21"/>
</linearGradient>
<path style="fill:url(#SVGID_23_);" d="M393.688,103.527l-0.089-0.09l-0.09,0.09l-0.455,0.456l-1.234,1.235l-0.457,0.457
	l-0.09,0.089l0.09,0.088l0.457,0.456l36.569,36.571l0.455,0.455l0.091,0.091l0.088-0.091l0.457-0.455l1.235-1.236l0.455-0.455
	l0.09-0.089l-0.09-0.09l-0.455-0.456l-36.572-36.57L393.688,103.527z M430.364,141.099l-0.098,0.097l-1.234,1.236l-0.098,0.098
	l-0.099-0.098l-36.57-36.57l-0.098-0.098l0.098-0.099l1.235-1.234l0.098-0.098l0.097,0.097l36.571,36.572L430.364,141.099z"/>
<linearGradient id="SVGID_24_" gradientUnits="userSpaceOnUse" x1="335.7109" y1="105.2598" x2="375.6963" y2="105.2598">
	<stop  offset="0" style="stop-color:#FFDE00"/>
	<stop  offset="0.5714" style="stop-color:#86AB71"/>
	<stop  offset="0.8791" style="stop-color:#EBABAB"/>
	<stop  offset="1" style="stop-color:#F37D21"/>
</linearGradient>
<path style="fill:url(#SVGID_24_);" d="M375.152,122.383l-36.571-36.572l-0.455-0.454l-0.09-0.09l-0.09,0.09l-0.457,0.454
	l-1.235,1.235l-0.454,0.457l-0.089,0.09l0.089,0.09l0.454,0.454l36.572,36.571l0.455,0.455l0.089,0.089l0.09-0.089l0.455-0.455
	l1.236-1.234l0.455-0.457l0.09-0.09l-0.09-0.09L375.152,122.383z M338.035,86.164l0.097,0.096l36.572,36.571l0.096,0.097
	l-0.097,0.097l-1.236,1.234l-0.097,0.096l-0.096-0.096l-36.572-36.569l-0.097-0.099l0.097-0.097l1.237-1.234L338.035,86.164z"/>
<linearGradient id="SVGID_25_" gradientUnits="userSpaceOnUse" x1="404.5518" y1="176.1987" x2="444.5391" y2="176.1987">
	<stop  offset="0" style="stop-color:#FFDE00"/>
	<stop  offset="0.5714" style="stop-color:#86AB71"/>
	<stop  offset="0.8791" style="stop-color:#EBABAB"/>
	<stop  offset="1" style="stop-color:#F37D21"/>
</linearGradient>
<path style="fill:url(#SVGID_25_);" d="M442.123,196.102l0.09,0.09l0.091-0.09l0.456-0.454l1.233-1.235l0.456-0.457l0.09-0.09
	l-0.09-0.089l-0.456-0.455l-36.57-36.572l-0.455-0.454l-0.09-0.09l-0.089,0.09l-0.456,0.454l-1.236,1.238l-0.455,0.454l-0.09,0.09
	l0.09,0.09l0.455,0.455l36.571,36.571L442.123,196.102z M442.213,195.296l-0.098-0.098l-36.571-36.57l-0.096-0.097l0.097-0.097
	l1.236-1.236l0.097-0.098l0.098,0.098l36.571,36.57l0.097,0.097l-0.097,0.1l-1.236,1.235L442.213,195.296z"/>
<linearGradient id="SVGID_26_" gradientUnits="userSpaceOnUse" x1="422.7236" y1="232.8101" x2="462.71" y2="232.8101">
	<stop  offset="0" style="stop-color:#FFDE00"/>
	<stop  offset="0.5714" style="stop-color:#86AB71"/>
	<stop  offset="0.8791" style="stop-color:#EBABAB"/>
	<stop  offset="1" style="stop-color:#F37D21"/>
</linearGradient>
<path style="fill:url(#SVGID_26_);" d="M423.268,215.687l36.572,36.572l0.454,0.454l0.091,0.09l0.09-0.09l0.456-0.454l1.234-1.235
	l0.456-0.455l0.089-0.09l-0.09-0.09l-0.455-0.456l-36.57-36.572l-0.455-0.454l-0.09-0.09l-0.09,0.09l-0.454,0.454l-1.238,1.236
	l-0.455,0.456l-0.089,0.09l0.089,0.09L423.268,215.687z M425.146,213.811l36.57,36.571l0.097,0.097l-0.097,0.096l-1.233,1.236
	l-0.098,0.097l-0.099-0.097l-36.569-36.571l-0.099-0.098l0.097-0.097l1.238-1.233l0.097-0.099L425.146,213.811z"/>
<linearGradient id="SVGID_27_" gradientUnits="userSpaceOnUse" x1="445.4385" y1="287.3247" x2="485.4248" y2="287.3247">
	<stop  offset="0" style="stop-color:#FFDE00"/>
	<stop  offset="0.5714" style="stop-color:#86AB71"/>
	<stop  offset="0.8791" style="stop-color:#EBABAB"/>
	<stop  offset="1" style="stop-color:#F37D21"/>
</linearGradient>
<path style="fill:url(#SVGID_27_);" d="M483.01,307.23l0.09,0.089l0.089-0.09l0.455-0.456l1.237-1.235l0.455-0.456l0.089-0.089
	l-0.09-0.089l-0.455-0.455l-36.571-36.571l-0.455-0.457l-0.09-0.09l-0.089,0.09l-0.457,0.457l-1.233,1.235l-0.456,0.455l-0.09,0.089
	l0.09,0.09l0.456,0.455l36.57,36.573L483.01,307.23z M447.764,268.226l0.098,0.099l36.571,36.57l0.098,0.098l-0.098,0.099
	l-1.235,1.233l-0.099,0.099l-0.097-0.098l-36.571-36.572l-0.097-0.097l0.097-0.098l1.234-1.234L447.764,268.226z"/>
<linearGradient id="SVGID_28_" gradientUnits="userSpaceOnUse" x1="452.0771" y1="331.0073" x2="492.0645" y2="331.0073">
	<stop  offset="0" style="stop-color:#FFDE00"/>
	<stop  offset="0.5714" style="stop-color:#86AB71"/>
	<stop  offset="0.8791" style="stop-color:#EBABAB"/>
	<stop  offset="1" style="stop-color:#F37D21"/>
</linearGradient>
<path style="fill:url(#SVGID_28_);" d="M452.623,313.883l36.572,36.571l0.455,0.456l0.089,0.09l0.09-0.09l0.454-0.456l1.235-1.235
	l0.456-0.455l0.09-0.089l-0.09-0.09l-0.456-0.454l-36.571-36.571l-0.455-0.456l-0.089-0.09l-0.09,0.09l-0.455,0.456l-1.235,1.235
	l-0.456,0.454l-0.09,0.09l0.09,0.089L452.623,313.883z M454.403,311.911l0.098,0.097l36.571,36.572l0.096,0.096l-0.096,0.097
	l-1.237,1.235l-0.096,0.096l-0.097-0.096l-36.571-36.573l-0.096-0.095l0.096-0.097l1.235-1.235L454.403,311.911z"/>
<linearGradient id="SVGID_29_" gradientUnits="userSpaceOnUse" x1="386.3799" y1="264.2612" x2="426.3672" y2="264.2612">
	<stop  offset="0" style="stop-color:#FFDE00"/>
	<stop  offset="0.5714" style="stop-color:#86AB71"/>
	<stop  offset="0.8791" style="stop-color:#EBABAB"/>
	<stop  offset="1" style="stop-color:#F37D21"/>
</linearGradient>
<path style="fill:url(#SVGID_29_);" d="M386.925,247.138l36.571,36.572l0.455,0.455l0.09,0.091l0.09-0.091l0.456-0.455l1.235-1.236
	l0.455-0.455l0.09-0.09l-0.09-0.089l-0.455-0.457l-36.571-36.571l-0.455-0.455l-0.09-0.09l-0.09,0.09l-0.456,0.455l-1.235,1.237
	l-0.455,0.455l-0.09,0.09l0.09,0.089L386.925,247.138z M387.276,246.593l0.097-0.097l1.236-1.235l0.097-0.098l0.097,0.098
	l36.571,36.572l0.097,0.096l-0.097,0.098l-1.237,1.235l-0.096,0.097l-0.098-0.097l-36.57-36.572L387.276,246.593z"/>
<linearGradient id="SVGID_30_" gradientUnits="userSpaceOnUse" x1="395.8164" y1="317.0288" x2="435.8027" y2="317.0288">
	<stop  offset="0" style="stop-color:#FFDE00"/>
	<stop  offset="0.5714" style="stop-color:#86AB71"/>
	<stop  offset="0.8791" style="stop-color:#EBABAB"/>
	<stop  offset="1" style="stop-color:#F37D21"/>
</linearGradient>
<path style="fill:url(#SVGID_30_);" d="M396.361,299.906l36.57,36.571l0.455,0.455l0.09,0.09l0.09-0.09l0.455-0.455l1.236-1.235
	l0.455-0.455l0.09-0.09l-0.09-0.09l-0.455-0.456l-36.571-36.57l-0.454-0.456l-0.09-0.089l-0.09,0.089l-0.457,0.456l-1.234,1.235
	l-0.456,0.455l-0.089,0.09l0.089,0.09L396.361,299.906z M398.141,297.933l0.098,0.097l36.57,36.57l0.098,0.097l-0.098,0.096
	l-1.236,1.237l-0.096,0.096l-0.097-0.097l-36.57-36.572l-0.097-0.097l0.097-0.097l1.235-1.234L398.141,297.933z"/>
<linearGradient id="SVGID_31_" gradientUnits="userSpaceOnUse" x1="365.2383" y1="203.2808" x2="405.2246" y2="203.2808">
	<stop  offset="0" style="stop-color:#FFDE00"/>
	<stop  offset="0.5714" style="stop-color:#86AB71"/>
	<stop  offset="0.8791" style="stop-color:#EBABAB"/>
	<stop  offset="1" style="stop-color:#F37D21"/>
</linearGradient>
<path style="fill:url(#SVGID_31_);" d="M402.809,223.186l0.091,0.089l0.09-0.089l0.455-0.455l1.236-1.237l0.455-0.454l0.089-0.09
	l-0.089-0.09l-0.455-0.456l-36.571-36.571l-0.455-0.455l-0.09-0.09l-0.09,0.09l-0.456,0.455l-1.234,1.235l-0.456,0.455l-0.09,0.09
	l0.09,0.09l0.456,0.457l36.569,36.571L402.809,223.186z M366.136,185.612l0.097-0.096l1.236-1.235l0.096-0.096l0.097,0.096
	l36.571,36.572l0.096,0.096l-0.097,0.097l-1.235,1.235l-0.097,0.098l-0.098-0.098l-36.569-36.572L366.136,185.612z"/>
<linearGradient id="SVGID_32_" gradientUnits="userSpaceOnUse" x1="337.8066" y1="145.4463" x2="377.793" y2="145.4463">
	<stop  offset="0" style="stop-color:#FFDE00"/>
	<stop  offset="0.5714" style="stop-color:#86AB71"/>
	<stop  offset="0.8791" style="stop-color:#EBABAB"/>
	<stop  offset="1" style="stop-color:#F37D21"/>
</linearGradient>
<path style="fill:url(#SVGID_32_);" d="M340.221,125.542l-0.09-0.09l-0.09,0.09l-0.455,0.455l-1.234,1.236l-0.455,0.455l-0.09,0.091
	l0.09,0.089l0.455,0.455l36.571,36.572l0.455,0.454l0.09,0.09l0.09-0.09l0.456-0.454l1.234-1.235l0.455-0.456l0.09-0.091l-0.09-0.09
	l-0.455-0.454l-36.571-36.572L340.221,125.542z M340.229,126.446l36.569,36.571l0.099,0.099l-0.099,0.096l-1.234,1.236l-0.097,0.097
	l-0.097-0.097L338.8,127.876l-0.098-0.097l0.098-0.098l1.235-1.236l0.098-0.098L340.229,126.446z"/>
<linearGradient id="SVGID_33_" gradientUnits="userSpaceOnUse" x1="316.665" y1="191.3999" x2="356.6514" y2="191.3999">
	<stop  offset="0" style="stop-color:#FFDE00"/>
	<stop  offset="0.5714" style="stop-color:#86AB71"/>
	<stop  offset="0.8791" style="stop-color:#EBABAB"/>
	<stop  offset="1" style="stop-color:#F37D21"/>
</linearGradient>
<path style="fill:url(#SVGID_33_);" d="M319.08,171.496l-0.089-0.09l-0.09,0.09l-0.455,0.456l-1.235,1.235l-0.457,0.456
	l-0.089,0.089l0.089,0.09l0.455,0.457l36.571,36.57l0.457,0.456l0.088,0.089l0.091-0.089l0.456-0.457l1.234-1.236l0.455-0.455
	l0.09-0.09l-0.09-0.09l-0.455-0.454l-36.57-36.571L319.08,171.496z M354.229,210.401l-36.572-36.571l-0.096-0.096l0.099-0.099
	l1.236-1.235l0.096-0.097l0.098,0.097l36.569,36.569l0.097,0.098l-0.097,0.097l-1.234,1.236l-0.099,0.097L354.229,210.401z"/>
<linearGradient id="SVGID_34_" gradientUnits="userSpaceOnUse" x1="330.293" y1="245.7397" x2="370.2803" y2="245.7397">
	<stop  offset="0" style="stop-color:#FFDE00"/>
	<stop  offset="0.5714" style="stop-color:#86AB71"/>
	<stop  offset="0.8791" style="stop-color:#EBABAB"/>
	<stop  offset="1" style="stop-color:#F37D21"/>
</linearGradient>
<path style="fill:url(#SVGID_34_);" d="M332.71,225.837l-0.09-0.09l-0.092,0.09l-0.454,0.456l-1.235,1.234l-0.456,0.455l-0.09,0.09
	l0.09,0.09l0.456,0.454l36.571,36.57l0.455,0.455l0.089,0.09l0.089-0.088l0.455-0.455l1.235-1.235l0.457-0.456l0.09-0.09l-0.09-0.09
	l-0.457-0.454l-36.568-36.57L332.71,225.837z M369.386,263.408l-0.098,0.098l-1.236,1.235l-0.097,0.096l-0.099-0.097l-36.57-36.568
	l-0.097-0.098l0.098-0.097l1.235-1.237l0.098-0.096l0.095,0.096l36.573,36.571L369.386,263.408z"/>
<linearGradient id="SVGID_35_" gradientUnits="userSpaceOnUse" x1="331.167" y1="291.8687" x2="371.1533" y2="291.8687">
	<stop  offset="0" style="stop-color:#FFDE00"/>
	<stop  offset="0.5714" style="stop-color:#86AB71"/>
	<stop  offset="0.8791" style="stop-color:#EBABAB"/>
	<stop  offset="1" style="stop-color:#F37D21"/>
</linearGradient>
<path style="fill:url(#SVGID_35_);" d="M368.739,311.772l0.089,0.09l0.09-0.09l0.454-0.455l1.235-1.235l0.456-0.457l0.09-0.088
	l-0.09-0.091l-0.456-0.454l-36.57-36.57l-0.455-0.457l-0.09-0.09l-0.089,0.09l-0.455,0.457l-1.235,1.235l-0.455,0.455l-0.091,0.089
	l0.091,0.09l0.455,0.455l36.571,36.571L368.739,311.772z M333.589,272.867l36.57,36.574l0.096,0.097l-0.096,0.096l-1.235,1.234
	l-0.096,0.097l-0.098-0.097l-36.569-36.571l-0.097-0.096l0.097-0.097l1.236-1.236l0.096-0.097L333.589,272.867z"/>
<linearGradient id="SVGID_36_" gradientUnits="userSpaceOnUse" x1="294.8232" y1="334.8511" x2="334.8115" y2="334.8511">
	<stop  offset="0" style="stop-color:#FFDE00"/>
	<stop  offset="0.5714" style="stop-color:#86AB71"/>
	<stop  offset="0.8791" style="stop-color:#EBABAB"/>
	<stop  offset="1" style="stop-color:#F37D21"/>
</linearGradient>
<path style="fill:url(#SVGID_36_);" d="M295.368,317.729l36.571,36.57l0.457,0.455l0.09,0.09l0.088-0.09l0.456-0.455l1.235-1.236
	l0.455-0.455l0.091-0.09l-0.091-0.089l-0.455-0.455l-36.571-36.571l-0.455-0.455l-0.09-0.09l-0.089,0.09l-0.456,0.455l-1.236,1.235
	l-0.455,0.457l-0.09,0.089l0.09,0.09L295.368,317.729z M332.486,353.948l-0.099-0.098l-36.572-36.568l-0.097-0.098l0.097-0.099
	l1.237-1.234l0.097-0.098l0.098,0.098l36.57,36.57l0.097,0.098l-0.097,0.096l-1.234,1.237L332.486,353.948z"/>
<linearGradient id="SVGID_37_" gradientUnits="userSpaceOnUse" x1="279.9727" y1="277.1909" x2="319.957" y2="277.1909">
	<stop  offset="0" style="stop-color:#FFDE00"/>
	<stop  offset="0.5714" style="stop-color:#86AB71"/>
	<stop  offset="0.8791" style="stop-color:#EBABAB"/>
	<stop  offset="1" style="stop-color:#F37D21"/>
</linearGradient>
<path style="fill:url(#SVGID_37_);" d="M280.516,260.07l36.572,36.569l0.454,0.456l0.09,0.088l0.091-0.088l0.455-0.456l1.235-1.236
	l0.455-0.454l0.089-0.09l-0.089-0.09l-0.455-0.455l-36.57-36.571l-0.455-0.455l-0.09-0.089l-0.09,0.089l-0.455,0.455l-1.237,1.235
	l-0.454,0.455l-0.089,0.09l0.089,0.09L280.516,260.07z M282.297,258.094l0.098,0.098l36.569,36.571l0.097,0.096l-0.097,0.097
	l-1.234,1.235l-0.096,0.096l-0.097-0.097l-36.571-36.568l-0.098-0.099l0.098-0.096l1.234-1.235L282.297,258.094z"/>
<linearGradient id="SVGID_38_" gradientUnits="userSpaceOnUse" x1="237.3379" y1="327.5132" x2="277.3252" y2="327.5132">
	<stop  offset="0" style="stop-color:#FFDE00"/>
	<stop  offset="0.5714" style="stop-color:#86AB71"/>
	<stop  offset="0.8791" style="stop-color:#EBABAB"/>
	<stop  offset="1" style="stop-color:#F37D21"/>
</linearGradient>
<path style="fill:url(#SVGID_38_);" d="M274.908,347.417l0.092,0.09l0.088-0.09l0.457-0.456l1.235-1.235l0.455-0.456l0.09-0.089
	l-0.089-0.088l-0.456-0.457l-36.572-36.572l-0.455-0.455l-0.09-0.089l-0.089,0.09l-0.455,0.455l-1.236,1.236l-0.455,0.455
	l-0.09,0.09l0.089,0.089l0.456,0.455l36.571,36.571L274.908,347.417z M239.762,308.512l36.571,36.57l0.097,0.097l-0.097,0.099
	l-1.235,1.235l-0.097,0.098l-0.099-0.098l-36.571-36.571l-0.098-0.097l0.097-0.099l1.236-1.234l0.098-0.098L239.762,308.512z"/>
<linearGradient id="SVGID_39_" gradientUnits="userSpaceOnUse" x1="629.0742" y1="334.5405" x2="669.0635" y2="334.5405">
	<stop  offset="0" style="stop-color:#FFDE00"/>
	<stop  offset="0.5714" style="stop-color:#86AB71"/>
	<stop  offset="0.8791" style="stop-color:#EBABAB"/>
	<stop  offset="1" style="stop-color:#F37D21"/>
</linearGradient>
<path style="fill:url(#SVGID_39_);" d="M666.647,354.444l0.089,0.09l0.09-0.09l0.454-0.455l1.236-1.234l0.456-0.455l0.091-0.09
	l-0.091-0.09l-0.456-0.454l-36.569-36.571l-0.456-0.455l-0.09-0.091l-0.09,0.091l-0.455,0.455l-1.235,1.235l-0.457,0.455l-0.09,0.09
	l0.09,0.09l0.457,0.454l36.571,36.57L666.647,354.444z M666.639,353.542l-36.57-36.57l-0.097-0.097l0.096-0.097l1.238-1.235
	l0.096-0.097l0.098,0.096l36.569,36.573l0.097,0.095l-0.097,0.097l-1.235,1.234l-0.097,0.099L666.639,353.542z"/>
<linearGradient id="SVGID_40_" gradientUnits="userSpaceOnUse" x1="627.9199" y1="277.6421" x2="667.9072" y2="277.6421">
	<stop  offset="0" style="stop-color:#FFDE00"/>
	<stop  offset="0.5714" style="stop-color:#86AB71"/>
	<stop  offset="0.8791" style="stop-color:#EBABAB"/>
	<stop  offset="1" style="stop-color:#F37D21"/>
</linearGradient>
<path style="fill:url(#SVGID_40_);" d="M665.49,297.546l0.09,0.09l0.09-0.09l0.455-0.454l1.236-1.236l0.456-0.455l0.09-0.09
	l-0.09-0.091l-0.456-0.452l-36.57-36.572l-0.454-0.456l-0.09-0.091l-0.09,0.091l-0.456,0.456l-1.235,1.235l-0.456,0.456l-0.09,0.089
	l0.09,0.089l0.456,0.456l36.569,36.57L665.49,297.546z M628.816,259.976l0.098-0.097l1.234-1.236l0.099-0.098l0.097,0.098
	l36.57,36.572l0.097,0.096l-0.099,0.098l-1.235,1.235l-0.097,0.097l-0.098-0.097l-36.569-36.572L628.816,259.976z"/>
<linearGradient id="SVGID_41_" gradientUnits="userSpaceOnUse" x1="614.4238" y1="217.8345" x2="654.4121" y2="217.8345">
	<stop  offset="0" style="stop-color:#FFDE00"/>
	<stop  offset="0.5714" style="stop-color:#86AB71"/>
	<stop  offset="0.8791" style="stop-color:#EBABAB"/>
	<stop  offset="1" style="stop-color:#F37D21"/>
</linearGradient>
<path style="fill:url(#SVGID_41_);" d="M651.995,237.739l0.089,0.09l0.091-0.09l0.454-0.455l1.237-1.235l0.456-0.454l0.09-0.09
	l-0.09-0.091l-0.456-0.455l-36.572-36.572l-0.455-0.456l-0.09-0.09l-0.09,0.09l-0.456,0.456l-1.235,1.235l-0.455,0.457l-0.089,0.089
	l0.089,0.09l0.455,0.455l36.572,36.571L651.995,237.739z M616.749,198.739l0.097,0.095l36.572,36.573l0.097,0.096l-0.097,0.096
	l-1.235,1.237l-0.099,0.097l-0.097-0.097l-36.571-36.571l-0.097-0.097l0.097-0.096l1.237-1.238L616.749,198.739z"/>
<linearGradient id="SVGID_42_" gradientUnits="userSpaceOnUse" x1="617.0088" y1="119.936" x2="656.9951" y2="119.936">
	<stop  offset="0" style="stop-color:#FFDE00"/>
	<stop  offset="0.5714" style="stop-color:#86AB71"/>
	<stop  offset="0.8791" style="stop-color:#EBABAB"/>
	<stop  offset="1" style="stop-color:#F37D21"/>
</linearGradient>
<path style="fill:url(#SVGID_42_);" d="M654.125,139.385l0.456,0.455l0.09,0.088l0.09-0.088l0.456-0.456l1.234-1.235l0.454-0.454
	l0.09-0.09l-0.09-0.09l-0.454-0.457l-36.569-36.57l-0.457-0.456l-0.09-0.088l-0.09,0.088l-0.455,0.456l-1.235,1.236l-0.456,0.455
	l-0.09,0.09l0.09,0.09l0.456,0.456L654.125,139.385z M619.335,100.839l0.098,0.099l36.57,36.567l0.098,0.1l-0.098,0.097
	l-1.234,1.234l-0.097,0.098l-0.098-0.098l-36.571-36.569l-0.097-0.097l0.098-0.098l1.233-1.235L619.335,100.839z"/>
<linearGradient id="SVGID_43_" gradientUnits="userSpaceOnUse" x1="591.3369" y1="30.1265" x2="631.3232" y2="30.1265">
	<stop  offset="0" style="stop-color:#FFDE00"/>
	<stop  offset="0.5714" style="stop-color:#86AB71"/>
	<stop  offset="0.8791" style="stop-color:#EBABAB"/>
	<stop  offset="1" style="stop-color:#F37D21"/>
</linearGradient>
<path style="fill:url(#SVGID_43_);" d="M591.881,13.004l36.572,36.571l0.454,0.456l0.09,0.09l0.089-0.09l0.457-0.456l1.234-1.235
	l0.455-0.456l0.091-0.089l-0.091-0.089l-0.455-0.456l-36.571-36.571l-0.455-0.456l-0.09-0.09l-0.089,0.09l-0.456,0.456l-1.235,1.235
	l-0.455,0.455l-0.089,0.089l0.089,0.089L591.881,13.004z M593.661,11.03l0.098,0.097l36.57,36.572l0.097,0.096l-0.097,0.098
	l-1.235,1.235l-0.097,0.098l-0.097-0.098l-36.571-36.572l-0.098-0.096l0.098-0.098l1.234-1.235L593.661,11.03z"/>
<linearGradient id="SVGID_44_" gradientUnits="userSpaceOnUse" x1="268.4414" y1="219.8804" x2="308.4268" y2="219.8804">
	<stop  offset="0" style="stop-color:#FFDE00"/>
	<stop  offset="0.5714" style="stop-color:#86AB71"/>
	<stop  offset="0.8791" style="stop-color:#EBABAB"/>
	<stop  offset="1" style="stop-color:#F37D21"/>
</linearGradient>
<path style="fill:url(#SVGID_44_);" d="M270.854,199.977l-0.09-0.09l-0.09,0.09l-0.455,0.455l-1.234,1.235l-0.455,0.456l-0.089,0.09
	l0.089,0.09l0.455,0.456l36.571,36.57l0.455,0.455l0.089,0.09l0.09-0.09l0.456-0.455l1.234-1.237l0.457-0.455l0.089-0.09
	l-0.089-0.089l-0.457-0.455l-36.571-36.571L270.854,199.977z M306.102,238.979l-0.097-0.097l-36.572-36.572l-0.096-0.097
	l0.097-0.097l1.235-1.236l0.097-0.098l0.098,0.098l36.57,36.569l0.099,0.098l-0.099,0.1l-1.235,1.235L306.102,238.979z"/>
<linearGradient id="SVGID_45_" gradientUnits="userSpaceOnUse" x1="260.0527" y1="169.5601" x2="300.04" y2="169.5601">
	<stop  offset="0" style="stop-color:#FFDE00"/>
	<stop  offset="0.5714" style="stop-color:#86AB71"/>
	<stop  offset="0.8791" style="stop-color:#EBABAB"/>
	<stop  offset="1" style="stop-color:#F37D21"/>
</linearGradient>
<path style="fill:url(#SVGID_45_);" d="M261.833,150.111l-1.235,1.235l-0.455,0.456l-0.09,0.089l0.09,0.089l0.455,0.456
	l36.571,36.572l0.455,0.454l0.09,0.091l0.089-0.091l0.455-0.454l1.238-1.236l0.455-0.455l0.089-0.09l-0.089-0.09l-0.455-0.457
	l-36.573-36.569l-0.456-0.454l-0.09-0.09l-0.09,0.09L261.833,150.111z M297.714,188.658l-0.098-0.099l-36.57-36.571l-0.097-0.097
	l0.097-0.098l1.234-1.233l0.097-0.098l0.1,0.098l36.571,36.568l0.097,0.098l-0.098,0.098l-1.236,1.235L297.714,188.658z"/>
<linearGradient id="SVGID_46_" gradientUnits="userSpaceOnUse" x1="277.875" y1="125.8774" x2="317.8633" y2="125.8774">
	<stop  offset="0" style="stop-color:#FFDE00"/>
	<stop  offset="0.5714" style="stop-color:#86AB71"/>
	<stop  offset="0.8791" style="stop-color:#EBABAB"/>
	<stop  offset="1" style="stop-color:#F37D21"/>
</linearGradient>
<path style="fill:url(#SVGID_46_);" d="M317.317,143l-36.571-36.57l-0.456-0.454l-0.09-0.09l-0.09,0.09l-0.454,0.454l-1.237,1.235
	l-0.454,0.456l-0.09,0.089l0.09,0.09l0.454,0.455l36.571,36.571l0.457,0.455l0.09,0.089l0.09-0.089l0.454-0.455l1.235-1.235
	l0.456-0.455l0.091-0.09l-0.091-0.09L317.317,143z M280.298,106.876l36.57,36.572l0.097,0.097l-0.097,0.097l-1.235,1.235
	l-0.096,0.097l-0.099-0.097l-36.571-36.57l-0.097-0.098l0.097-0.097l1.236-1.236l0.098-0.098L280.298,106.876z"/>
<linearGradient id="SVGID_47_" gradientUnits="userSpaceOnUse" x1="313.5186" y1="47.8799" x2="353.5068" y2="47.8799">
	<stop  offset="0" style="stop-color:#FFDE00"/>
	<stop  offset="0.5714" style="stop-color:#86AB71"/>
	<stop  offset="0.8791" style="stop-color:#EBABAB"/>
	<stop  offset="1" style="stop-color:#F37D21"/>
</linearGradient>
<path style="fill:url(#SVGID_47_);" d="M314.064,30.758l36.57,36.57l0.455,0.456l0.09,0.09l0.089-0.09l0.457-0.456l1.235-1.234
	l0.456-0.456l0.09-0.089l-0.09-0.09l-0.456-0.454L316.39,28.433l-0.455-0.456l-0.09-0.09l-0.09,0.09l-0.454,0.456l-1.236,1.235
	l-0.456,0.455l-0.09,0.09l0.09,0.089L314.064,30.758z M315.845,28.782l0.098,0.097l36.571,36.573l0.097,0.096l-0.097,0.097
	l-1.235,1.235l-0.097,0.097l-0.099-0.097l-36.571-36.57l-0.097-0.097l0.099-0.097l1.234-1.237L315.845,28.782z"/>
<linearGradient id="SVGID_48_" gradientUnits="userSpaceOnUse" x1="273.0791" y1="66.5669" x2="313.0654" y2="66.5669">
	<stop  offset="0" style="stop-color:#FFDE00"/>
	<stop  offset="0.5714" style="stop-color:#86AB71"/>
	<stop  offset="0.8791" style="stop-color:#EBABAB"/>
	<stop  offset="1" style="stop-color:#F37D21"/>
</linearGradient>
<path style="fill:url(#SVGID_48_);" d="M273.624,49.445l36.57,36.571l0.455,0.454l0.09,0.09l0.091-0.09l0.455-0.454l1.236-1.236
	l0.455-0.456l0.089-0.09l-0.089-0.09l-0.455-0.455L275.95,47.118l-0.455-0.455l-0.09-0.089l-0.09,0.089l-0.455,0.455l-1.236,1.237
	l-0.455,0.455l-0.09,0.09l0.09,0.09L273.624,49.445z M273.978,48.899l0.096-0.096l1.235-1.236l0.097-0.096l0.097,0.096l36.57,36.57
	l0.096,0.097l-0.096,0.097l-1.235,1.236l-0.098,0.097l-0.096-0.097l-36.57-36.572L273.978,48.899z"/>
<linearGradient id="SVGID_49_" gradientUnits="userSpaceOnUse" x1="222.3135" y1="104.2114" x2="262.2998" y2="104.2114">
	<stop  offset="0" style="stop-color:#FFDE00"/>
	<stop  offset="0.5714" style="stop-color:#86AB71"/>
	<stop  offset="0.8791" style="stop-color:#EBABAB"/>
	<stop  offset="1" style="stop-color:#F37D21"/>
</linearGradient>
<path style="fill:url(#SVGID_49_);" d="M224.727,84.308l-0.089-0.09l-0.09,0.09l-0.456,0.454l-1.234,1.236l-0.455,0.455
	l-0.089,0.091l0.089,0.09l0.455,0.454l36.57,36.571l0.455,0.455l0.089,0.09l0.09-0.09l0.457-0.455l1.235-1.235l0.455-0.456
	l0.091-0.09l-0.091-0.089l-0.455-0.455l-36.571-36.572L224.727,84.308z M259.875,123.212l-36.57-36.572l-0.097-0.098l0.097-0.096
	l1.234-1.235l0.099-0.098l0.097,0.098l36.572,36.57l0.097,0.098l-0.097,0.099l-1.237,1.234l-0.098,0.098L259.875,123.212z"/>
<linearGradient id="SVGID_50_" gradientUnits="userSpaceOnUse" x1="219.46" y1="47.1255" x2="259.4463" y2="47.1255">
	<stop  offset="0" style="stop-color:#FFDE00"/>
	<stop  offset="0.5714" style="stop-color:#86AB71"/>
	<stop  offset="0.8791" style="stop-color:#EBABAB"/>
	<stop  offset="1" style="stop-color:#F37D21"/>
</linearGradient>
<path style="fill:url(#SVGID_50_);" d="M220.005,30.002l36.572,36.571l0.454,0.455l0.09,0.089l0.09-0.089l0.456-0.455l1.234-1.235
	l0.455-0.457l0.09-0.09l-0.09-0.09l-0.455-0.454l-36.57-36.57l-0.455-0.456l-0.089-0.089l-0.09,0.089l-0.455,0.456l-1.237,1.235
	l-0.455,0.455l-0.09,0.09l0.09,0.089L220.005,30.002z M257.025,66.125l-36.573-36.571l-0.096-0.096l0.096-0.097l1.238-1.236
	l0.097-0.097l0.096,0.097l36.57,36.57l0.098,0.1l-0.098,0.095l-1.235,1.236l-0.097,0.097L257.025,66.125z"/>
<linearGradient id="SVGID_51_" gradientUnits="userSpaceOnUse" x1="199.9473" y1="149.2915" x2="239.9336" y2="149.2915">
	<stop  offset="0" style="stop-color:#FFDE00"/>
	<stop  offset="0.5714" style="stop-color:#86AB71"/>
	<stop  offset="0.8791" style="stop-color:#EBABAB"/>
	<stop  offset="1" style="stop-color:#F37D21"/>
</linearGradient>
<path style="fill:url(#SVGID_51_);" d="M237.519,169.196l0.09,0.09l0.089-0.09l0.457-0.457l1.235-1.235l0.454-0.455l0.09-0.09
	l-0.09-0.089l-0.455-0.457l-36.571-36.569l-0.455-0.457l-0.09-0.089l-0.09,0.089l-0.456,0.457l-1.234,1.235l-0.456,0.454
	l-0.089,0.09l0.089,0.09l0.456,0.455l36.571,36.571L237.519,169.196z M237.608,168.388l-0.095-0.097l-36.573-36.572l-0.098-0.096
	l0.098-0.096l1.235-1.236l0.097-0.097l0.096,0.097l36.572,36.57l0.098,0.097l-0.097,0.097l-1.234,1.236L237.608,168.388z"/>
<linearGradient id="SVGID_52_" gradientUnits="userSpaceOnUse" x1="207.9863" y1="212.5415" x2="247.9707" y2="212.5415">
	<stop  offset="0" style="stop-color:#FFDE00"/>
	<stop  offset="0.5714" style="stop-color:#86AB71"/>
	<stop  offset="0.8791" style="stop-color:#EBABAB"/>
	<stop  offset="1" style="stop-color:#F37D21"/>
</linearGradient>
<path style="fill:url(#SVGID_52_);" d="M245.556,232.446l0.091,0.09l0.088-0.09l0.457-0.455l1.234-1.236l0.454-0.456l0.091-0.088
	l-0.091-0.091l-0.454-0.455l-36.57-36.571l-0.456-0.456l-0.089-0.09l-0.09,0.09l-0.455,0.456l-1.236,1.236l-0.454,0.456
	l-0.089,0.089l0.088,0.089l0.455,0.456l36.571,36.571L245.556,232.446z M245.646,231.64l-0.099-0.098l-36.57-36.57l-0.098-0.098
	l0.097-0.097l1.236-1.237l0.098-0.097l0.097,0.097l36.571,36.571l0.097,0.099l-0.097,0.097l-1.235,1.235L245.646,231.64z"/>
<linearGradient id="SVGID_53_" gradientUnits="userSpaceOnUse" x1="216.3711" y1="271.9487" x2="256.3584" y2="271.9487">
	<stop  offset="0" style="stop-color:#FFDE00"/>
	<stop  offset="0.5714" style="stop-color:#86AB71"/>
	<stop  offset="0.8791" style="stop-color:#EBABAB"/>
	<stop  offset="1" style="stop-color:#F37D21"/>
</linearGradient>
<path style="fill:url(#SVGID_53_);" d="M253.942,291.853l0.09,0.09l0.09-0.09l0.455-0.455l1.236-1.236l0.455-0.455l0.09-0.09
	l-0.09-0.09l-0.455-0.455L219.242,252.5l-0.455-0.455l-0.09-0.09l-0.091,0.09l-0.455,0.455l-1.235,1.236l-0.455,0.454l-0.09,0.09
	l0.09,0.09l0.455,0.457l36.571,36.57L253.942,291.853z M217.269,254.283l0.096-0.096l1.237-1.238l0.096-0.097l0.097,0.097
	l36.571,36.571l0.097,0.097l-0.097,0.098l-1.236,1.234l-0.097,0.098l-0.097-0.098l-36.571-36.569L217.269,254.283z"/>
<linearGradient id="SVGID_54_" gradientUnits="userSpaceOnUse" x1="0" y1="258.396" x2="39.9863" y2="258.396">
	<stop  offset="0" style="stop-color:#FFDE00"/>
	<stop  offset="0.5714" style="stop-color:#86AB71"/>
	<stop  offset="0.8791" style="stop-color:#EBABAB"/>
	<stop  offset="1" style="stop-color:#F37D21"/>
</linearGradient>
<path style="fill:url(#SVGID_54_);" d="M2.416,238.493l-0.09-0.09l-0.09,0.09l-0.455,0.457l-1.235,1.235l-0.456,0.454L0,240.729
	l0.09,0.09l0.456,0.455l36.57,36.571l0.456,0.455l0.09,0.089l0.089-0.089l0.455-0.455l1.235-1.235l0.455-0.455l0.09-0.09l-0.09-0.09
	l-0.455-0.456L2.871,238.95L2.416,238.493z M37.662,277.494l-0.097-0.097L0.994,240.826l-0.099-0.097l0.099-0.097l1.235-1.235
	l0.097-0.098l0.097,0.098l36.571,36.57l0.096,0.098l-0.096,0.097l-1.236,1.235L37.662,277.494z"/>
<linearGradient id="SVGID_55_" gradientUnits="userSpaceOnUse" x1="15.376" y1="310.1167" x2="55.3623" y2="310.1167">
	<stop  offset="0" style="stop-color:#FFDE00"/>
	<stop  offset="0.5714" style="stop-color:#86AB71"/>
	<stop  offset="0.8791" style="stop-color:#EBABAB"/>
	<stop  offset="1" style="stop-color:#F37D21"/>
</linearGradient>
<path style="fill:url(#SVGID_55_);" d="M52.946,330.019l0.09,0.092l0.092-0.092l0.455-0.455l1.234-1.235l0.455-0.454l0.09-0.09
	l-0.09-0.091l-0.454-0.454l-36.571-36.571l-0.455-0.456l-0.09-0.09l-0.09,0.09l-0.455,0.456l-1.234,1.235l-0.457,0.455l-0.09,0.09
	l0.09,0.09l0.455,0.455l36.57,36.57L52.946,330.019z M17.702,291.02l0.097,0.097l36.57,36.569l0.098,0.099l-0.098,0.097
	l-1.235,1.235l-0.098,0.096l-0.096-0.096l-36.572-36.572l-0.096-0.096l0.098-0.097l1.234-1.235L17.702,291.02z"/>
<linearGradient id="SVGID_56_" gradientUnits="userSpaceOnUse" x1="20.2686" y1="214.0161" x2="60.2539" y2="214.0161">
	<stop  offset="0" style="stop-color:#FFDE00"/>
	<stop  offset="0.5714" style="stop-color:#86AB71"/>
	<stop  offset="0.8791" style="stop-color:#EBABAB"/>
	<stop  offset="1" style="stop-color:#F37D21"/>
</linearGradient>
<path style="fill:url(#SVGID_56_);" d="M22.683,194.113l-0.089-0.09l-0.089,0.09l-0.455,0.455l-1.236,1.234l-0.456,0.457
	l-0.089,0.09l0.089,0.089l0.457,0.455l36.569,36.572l0.457,0.455l0.089,0.089l0.089-0.089l0.456-0.455l1.235-1.235l0.455-0.457
	l0.089-0.089l-0.089-0.089l-0.455-0.456l-36.57-36.572L22.683,194.113z M57.93,233.115l-0.1-0.097l-36.568-36.572l-0.098-0.097
	l0.098-0.1l1.235-1.233l0.098-0.099l0.099,0.099l36.568,36.572l0.097,0.097l-0.097,0.098l-1.235,1.235L57.93,233.115z"/>
<linearGradient id="SVGID_57_" gradientUnits="userSpaceOnUse" x1="0.3496" y1="162.2969" x2="40.3369" y2="162.2969">
	<stop  offset="0" style="stop-color:#FFDE00"/>
	<stop  offset="0.5714" style="stop-color:#86AB71"/>
	<stop  offset="0.8791" style="stop-color:#EBABAB"/>
	<stop  offset="1" style="stop-color:#F37D21"/>
</linearGradient>
<path style="fill:url(#SVGID_57_);" d="M0.895,145.175l36.571,36.57l0.455,0.454l0.089,0.09l0.09-0.09l0.455-0.454l1.236-1.236
	l0.456-0.454l0.09-0.09l-0.09-0.09l-0.456-0.455L3.22,142.849l-0.454-0.456l-0.09-0.089l-0.089,0.089l-0.457,0.456l-1.235,1.235
	l-0.456,0.454l-0.089,0.09l0.089,0.09L0.895,145.175z M1.246,144.628l0.098-0.096l1.235-1.235l0.097-0.097l0.097,0.097l36.57,36.571
	l0.098,0.097l-0.098,0.097l-1.234,1.233l-0.099,0.097l-0.096-0.097l-36.57-36.569L1.246,144.628z"/>
<linearGradient id="SVGID_58_" gradientUnits="userSpaceOnUse" x1="1.3984" y1="109.5288" x2="41.3857" y2="109.5288">
	<stop  offset="0" style="stop-color:#FFDE00"/>
	<stop  offset="0.5714" style="stop-color:#86AB71"/>
	<stop  offset="0.8791" style="stop-color:#EBABAB"/>
	<stop  offset="1" style="stop-color:#F37D21"/>
</linearGradient>
<path style="fill:url(#SVGID_58_);" d="M1.943,92.408l36.57,36.568l0.456,0.457l0.09,0.09l0.089-0.09l0.456-0.457l1.235-1.233
	l0.456-0.456l0.09-0.09l-0.09-0.089l-0.456-0.455L4.268,90.082l-0.454-0.457l-0.09-0.09l-0.089,0.09l-0.457,0.457l-1.234,1.235
	l-0.455,0.456l-0.09,0.09l0.09,0.089L1.943,92.408z M3.724,90.433l0.097,0.096L40.392,127.1l0.097,0.097l-0.097,0.097l-1.236,1.235
	l-0.096,0.098l-0.097-0.098L2.391,91.958l-0.096-0.096l0.096-0.098l1.235-1.236L3.724,90.433z"/>
<linearGradient id="SVGID_59_" gradientUnits="userSpaceOnUse" x1="111.7109" y1="336.5933" x2="151.6963" y2="336.5933">
	<stop  offset="0" style="stop-color:#FFDE00"/>
	<stop  offset="0.5714" style="stop-color:#86AB71"/>
	<stop  offset="0.8791" style="stop-color:#EBABAB"/>
	<stop  offset="1" style="stop-color:#F37D21"/>
</linearGradient>
<path style="fill:url(#SVGID_59_);" d="M151.152,353.716l-36.571-36.572l-0.455-0.454l-0.09-0.09l-0.09,0.09l-0.457,0.454
	l-1.235,1.235l-0.454,0.457l-0.089,0.09l0.089,0.09l0.454,0.454l36.572,36.571l0.455,0.455l0.089,0.089l0.09-0.089l0.455-0.455
	l1.236-1.234l0.455-0.457l0.09-0.09l-0.09-0.09L151.152,353.716z M114.035,317.497l0.097,0.096l36.572,36.571l0.096,0.097
	l-0.097,0.097l-1.236,1.234l-0.097,0.096l-0.096-0.096l-36.572-36.569l-0.097-0.099l0.097-0.097l1.237-1.234L114.035,317.497z"/>
<linearGradient id="SVGID_60_" gradientUnits="userSpaceOnUse" x1="61.9199" y1="326.6421" x2="101.9072" y2="326.6421">
	<stop  offset="0" style="stop-color:#FFDE00"/>
	<stop  offset="0.5714" style="stop-color:#86AB71"/>
	<stop  offset="0.8791" style="stop-color:#EBABAB"/>
	<stop  offset="1" style="stop-color:#F37D21"/>
</linearGradient>
<path style="fill:url(#SVGID_60_);" d="M99.49,346.546l0.09,0.09l0.09-0.09l0.455-0.454l1.236-1.236l0.456-0.455l0.09-0.09
	l-0.09-0.091l-0.456-0.452l-36.57-36.572l-0.454-0.456l-0.09-0.091l-0.09,0.091l-0.456,0.456l-1.235,1.235l-0.456,0.456l-0.09,0.089
	l0.09,0.089l0.456,0.456l36.569,36.57L99.49,346.546z M62.816,308.976l0.098-0.097l1.234-1.236l0.099-0.098l0.097,0.098
	l36.57,36.572l0.097,0.096l-0.099,0.098l-1.235,1.235l-0.097,0.097l-0.098-0.097l-36.569-36.572L62.816,308.976z"/>
<linearGradient id="SVGID_61_" gradientUnits="userSpaceOnUse" x1="48.4238" y1="266.8345" x2="88.4121" y2="266.8345">
	<stop  offset="0" style="stop-color:#FFDE00"/>
	<stop  offset="0.5714" style="stop-color:#86AB71"/>
	<stop  offset="0.8791" style="stop-color:#EBABAB"/>
	<stop  offset="1" style="stop-color:#F37D21"/>
</linearGradient>
<path style="fill:url(#SVGID_61_);" d="M85.995,286.739l0.089,0.09l0.091-0.09l0.454-0.455l1.237-1.235l0.456-0.454l0.09-0.09
	l-0.09-0.091l-0.456-0.455l-36.572-36.572l-0.455-0.456l-0.09-0.09l-0.09,0.09l-0.456,0.456l-1.235,1.235l-0.455,0.457l-0.089,0.089
	l0.089,0.09l0.455,0.455l36.572,36.571L85.995,286.739z M50.749,247.739l0.097,0.095l36.572,36.573l0.097,0.096l-0.097,0.096
	l-1.235,1.237l-0.099,0.097l-0.097-0.097l-36.571-36.571l-0.097-0.097l0.097-0.096l1.237-1.238L50.749,247.739z"/>
<linearGradient id="SVGID_62_" gradientUnits="userSpaceOnUse" x1="69.8809" y1="219.2583" x2="109.8662" y2="219.2583">
	<stop  offset="0" style="stop-color:#FFDE00"/>
	<stop  offset="0.5714" style="stop-color:#86AB71"/>
	<stop  offset="0.8791" style="stop-color:#EBABAB"/>
	<stop  offset="1" style="stop-color:#F37D21"/>
</linearGradient>
<path style="fill:url(#SVGID_62_);" d="M107.452,239.162l0.089,0.09l0.09-0.09l0.455-0.455l1.236-1.235l0.454-0.456l0.09-0.089
	l-0.09-0.089l-0.454-0.456L72.751,199.81l-0.455-0.455l-0.09-0.09l-0.089,0.09l-0.457,0.455l-1.234,1.235l-0.455,0.456l-0.09,0.09
	l0.09,0.09l0.455,0.454l36.57,36.571L107.452,239.162z M72.206,200.162l0.098,0.097l36.57,36.57l0.097,0.098l-0.097,0.096
	l-1.236,1.235l-0.098,0.098l-0.097-0.098l-36.569-36.569l-0.097-0.099l0.096-0.096l1.237-1.235L72.206,200.162z"/>
<linearGradient id="SVGID_63_" gradientUnits="userSpaceOnUse" x1="51.0088" y1="168.936" x2="90.9951" y2="168.936">
	<stop  offset="0" style="stop-color:#FFDE00"/>
	<stop  offset="0.5714" style="stop-color:#86AB71"/>
	<stop  offset="0.8791" style="stop-color:#EBABAB"/>
	<stop  offset="1" style="stop-color:#F37D21"/>
</linearGradient>
<path style="fill:url(#SVGID_63_);" d="M88.125,188.385l0.456,0.455l0.09,0.088l0.09-0.088l0.456-0.456l1.234-1.235l0.454-0.454
	l0.09-0.09l-0.09-0.09l-0.454-0.457l-36.569-36.57l-0.457-0.456l-0.09-0.088l-0.09,0.088l-0.455,0.456l-1.235,1.236l-0.456,0.455
	l-0.09,0.09l0.09,0.09l0.456,0.456L88.125,188.385z M53.335,149.839l0.098,0.099l36.57,36.567l0.098,0.1l-0.098,0.097l-1.234,1.234
	l-0.097,0.098l-0.098-0.098l-36.571-36.569l-0.097-0.097l0.098-0.098l1.233-1.235L53.335,149.839z"/>
<linearGradient id="SVGID_64_" gradientUnits="userSpaceOnUse" x1="25.3369" y1="79.1265" x2="65.3232" y2="79.1265">
	<stop  offset="0" style="stop-color:#FFDE00"/>
	<stop  offset="0.5714" style="stop-color:#86AB71"/>
	<stop  offset="0.8791" style="stop-color:#EBABAB"/>
	<stop  offset="1" style="stop-color:#F37D21"/>
</linearGradient>
<path style="fill:url(#SVGID_64_);" d="M25.881,62.003l36.572,36.571l0.454,0.456l0.09,0.09l0.089-0.09l0.457-0.456l1.234-1.235
	l0.455-0.456l0.091-0.089l-0.091-0.09l-0.455-0.455l-36.571-36.57l-0.455-0.456l-0.09-0.091l-0.089,0.091l-0.456,0.456l-1.235,1.234
	l-0.455,0.455l-0.089,0.09l0.089,0.089L25.881,62.003z M27.661,60.03l0.098,0.097l36.57,36.572l0.097,0.096l-0.097,0.098
	l-1.235,1.235l-0.097,0.098L62.9,98.127L26.329,61.556l-0.098-0.097l0.098-0.098l1.234-1.235L27.661,60.03z"/>
<linearGradient id="SVGID_65_" gradientUnits="userSpaceOnUse" x1="86.1406" y1="93.8032" x2="126.1279" y2="93.8032">
	<stop  offset="0" style="stop-color:#FFDE00"/>
	<stop  offset="0.5714" style="stop-color:#86AB71"/>
	<stop  offset="0.8791" style="stop-color:#EBABAB"/>
	<stop  offset="1" style="stop-color:#F37D21"/>
</linearGradient>
<path style="fill:url(#SVGID_65_);" d="M86.686,76.681l36.571,36.571l0.454,0.455l0.09,0.089l0.09-0.089l0.455-0.455l1.236-1.235
	l0.456-0.455l0.09-0.09l-0.09-0.089l-0.456-0.457l-36.57-36.571L88.556,73.9l-0.09-0.09l-0.09,0.09l-0.454,0.455l-1.236,1.236
	l-0.455,0.455l-0.09,0.09l0.09,0.09L86.686,76.681z M88.466,74.708l0.097,0.097l36.571,36.572l0.097,0.096l-0.097,0.096
	l-1.235,1.236l-0.096,0.096l-0.098-0.096L87.134,76.233l-0.097-0.097l0.097-0.096l1.236-1.237L88.466,74.708z"/>
<linearGradient id="SVGID_66_" gradientUnits="userSpaceOnUse" x1="69.1406" y1="38.8032" x2="109.1279" y2="38.8032">
	<stop  offset="0" style="stop-color:#FFDE00"/>
	<stop  offset="0.5714" style="stop-color:#86AB71"/>
	<stop  offset="0.8791" style="stop-color:#EBABAB"/>
	<stop  offset="1" style="stop-color:#F37D21"/>
</linearGradient>
<path style="fill:url(#SVGID_66_);" d="M69.686,21.681l36.571,36.571l0.454,0.455l0.09,0.089l0.09-0.089l0.455-0.455l1.236-1.235
	l0.456-0.455l0.09-0.09l-0.09-0.089l-0.456-0.457l-36.57-36.571L71.556,18.9l-0.09-0.09l-0.09,0.09l-0.454,0.455l-1.236,1.236
	l-0.455,0.455l-0.09,0.09l0.09,0.09L69.686,21.681z M71.466,19.708l0.097,0.097l36.571,36.572l0.097,0.096l-0.097,0.096
	l-1.235,1.236l-0.096,0.096l-0.098-0.096L70.134,21.233l-0.097-0.097l0.097-0.096l1.236-1.237L71.466,19.708z"/>
<linearGradient id="SVGID_67_" gradientUnits="userSpaceOnUse" x1="89.6367" y1="130.1465" x2="129.6211" y2="130.1465">
	<stop  offset="0" style="stop-color:#FFDE00"/>
	<stop  offset="0.5714" style="stop-color:#86AB71"/>
	<stop  offset="0.8791" style="stop-color:#EBABAB"/>
	<stop  offset="1" style="stop-color:#F37D21"/>
</linearGradient>
<path style="fill:url(#SVGID_67_);" d="M92.051,110.243l-0.09-0.089l-0.09,0.089l-0.456,0.456l-1.235,1.235l-0.454,0.454
	l-0.089,0.091l0.089,0.089l0.454,0.456l36.57,36.571l0.457,0.455l0.09,0.089l0.09-0.089l0.455-0.455l1.234-1.234l0.455-0.456
	l0.09-0.09l-0.09-0.09l-0.455-0.456l-36.569-36.57L92.051,110.243z M127.297,149.244l-0.098-0.097l-36.57-36.57l-0.097-0.097
	l0.098-0.098l1.232-1.236l0.098-0.098l0.099,0.1l36.57,36.57l0.096,0.097l-0.097,0.098l-1.233,1.234L127.297,149.244z"/>
<linearGradient id="SVGID_68_" gradientUnits="userSpaceOnUse" x1="95.2266" y1="174.8784" x2="135.2139" y2="174.8784">
	<stop  offset="0" style="stop-color:#FFDE00"/>
	<stop  offset="0.5714" style="stop-color:#86AB71"/>
	<stop  offset="0.8791" style="stop-color:#EBABAB"/>
	<stop  offset="1" style="stop-color:#F37D21"/>
</linearGradient>
<path style="fill:url(#SVGID_68_);" d="M97.643,154.972l-0.09-0.087l-0.09,0.087l-0.455,0.457l-1.237,1.235l-0.455,0.456
	l-0.089,0.089l0.089,0.09l0.455,0.455l36.571,36.571l0.455,0.455l0.09,0.091l0.09-0.091l0.456-0.455l1.236-1.235l0.456-0.455
	l0.089-0.09l-0.089-0.09l-0.456-0.457l-36.571-36.569L97.643,154.972z M97.553,155.782l0.097,0.096l36.571,36.571l0.097,0.097
	l-0.097,0.097l-1.236,1.235l-0.098,0.097l-0.097-0.097l-36.571-36.57l-0.097-0.098l0.097-0.097l1.237-1.236L97.553,155.782z"/>
<linearGradient id="SVGID_69_" gradientUnits="userSpaceOnUse" x1="159.2266" y1="201.8784" x2="199.2139" y2="201.8784">
	<stop  offset="0" style="stop-color:#FFDE00"/>
	<stop  offset="0.5714" style="stop-color:#86AB71"/>
	<stop  offset="0.8791" style="stop-color:#EBABAB"/>
	<stop  offset="1" style="stop-color:#F37D21"/>
</linearGradient>
<path style="fill:url(#SVGID_69_);" d="M161.643,181.972l-0.09-0.087l-0.09,0.087l-0.455,0.457l-1.237,1.235l-0.455,0.456
	l-0.089,0.089l0.089,0.09l0.455,0.455l36.571,36.571l0.455,0.455l0.09,0.091l0.09-0.091l0.456-0.455l1.236-1.235l0.456-0.455
	l0.089-0.09l-0.089-0.09l-0.456-0.457l-36.571-36.569L161.643,181.972z M161.553,182.782l0.097,0.096l36.571,36.571l0.097,0.097
	l-0.097,0.097l-1.236,1.235l-0.098,0.097l-0.097-0.097l-36.571-36.57l-0.097-0.098l0.097-0.097l1.237-1.236L161.553,182.782z"/>
<linearGradient id="SVGID_70_" gradientUnits="userSpaceOnUse" x1="99.4199" y1="276.2183" x2="139.4062" y2="276.2183">
	<stop  offset="0" style="stop-color:#FFDE00"/>
	<stop  offset="0.5714" style="stop-color:#86AB71"/>
	<stop  offset="0.8791" style="stop-color:#EBABAB"/>
	<stop  offset="1" style="stop-color:#F37D21"/>
</linearGradient>
<path style="fill:url(#SVGID_70_);" d="M139.316,293.797l-0.454-0.455l-36.572-36.57l-0.454-0.456l-0.09-0.09l-0.09,0.09
	l-0.456,0.455l-1.236,1.235l-0.454,0.454l-0.09,0.09l0.09,0.09l0.454,0.457l36.572,36.569l0.454,0.454l0.09,0.091l0.09-0.089
	l0.455-0.456l1.236-1.234l0.455-0.455l0.09-0.09L139.316,293.797z M101.746,257.124l0.096,0.096l36.572,36.572l0.096,0.096
	l-0.096,0.095l-1.237,1.235l-0.097,0.097l-0.094-0.097l-36.573-36.57l-0.097-0.094l0.097-0.097l1.236-1.237L101.746,257.124z"/>
<linearGradient id="SVGID_71_" gradientUnits="userSpaceOnUse" x1="135.7539" y1="251.2183" x2="175.7402" y2="251.2183">
	<stop  offset="0" style="stop-color:#FFDE00"/>
	<stop  offset="0.5714" style="stop-color:#86AB71"/>
	<stop  offset="0.8791" style="stop-color:#EBABAB"/>
	<stop  offset="1" style="stop-color:#F37D21"/>
</linearGradient>
<path style="fill:url(#SVGID_71_);" d="M175.65,268.797l-0.454-0.455l-36.572-36.57l-0.454-0.456l-0.09-0.09l-0.09,0.09
	l-0.456,0.455l-1.236,1.235l-0.454,0.454l-0.09,0.09l0.09,0.09l0.454,0.457l36.572,36.569l0.454,0.454l0.09,0.091l0.09-0.089
	l0.455-0.456l1.236-1.234l0.455-0.455l0.09-0.09L175.65,268.797z M138.08,232.124l0.096,0.096l36.572,36.572l0.096,0.096
	l-0.096,0.095l-1.237,1.235l-0.097,0.097l-0.094-0.097l-36.573-36.57l-0.097-0.094l0.097-0.097l1.236-1.237L138.08,232.124z"/>
<linearGradient id="SVGID_72_" gradientUnits="userSpaceOnUse" x1="179.0869" y1="316.5522" x2="219.0732" y2="316.5522">
	<stop  offset="0" style="stop-color:#FFDE00"/>
	<stop  offset="0.5714" style="stop-color:#86AB71"/>
	<stop  offset="0.8791" style="stop-color:#EBABAB"/>
	<stop  offset="1" style="stop-color:#F37D21"/>
</linearGradient>
<path style="fill:url(#SVGID_72_);" d="M218.983,334.131l-0.454-0.455l-36.572-36.57l-0.454-0.456l-0.09-0.09l-0.09,0.09
	l-0.456,0.455l-1.236,1.235l-0.454,0.454l-0.09,0.09l0.09,0.09l0.454,0.457L216.203,336l0.454,0.454l0.09,0.091l0.09-0.089
	l0.455-0.456l1.236-1.234l0.455-0.455l0.09-0.09L218.983,334.131z M181.413,297.458l0.096,0.096l36.572,36.572l0.096,0.096
	l-0.096,0.095l-1.237,1.235l-0.097,0.097l-0.094-0.097l-36.573-36.57l-0.097-0.094l0.097-0.097l1.236-1.237L181.413,297.458z"/>
<linearGradient id="SVGID_73_" gradientUnits="userSpaceOnUse" x1="151.4746" y1="151.1362" x2="191.4619" y2="151.1362">
	<stop  offset="0" style="stop-color:#FFDE00"/>
	<stop  offset="0.5714" style="stop-color:#86AB71"/>
	<stop  offset="0.8791" style="stop-color:#EBABAB"/>
	<stop  offset="1" style="stop-color:#F37D21"/>
</linearGradient>
<path style="fill:url(#SVGID_73_);" d="M152.02,134.014l36.571,36.571l0.454,0.455l0.09,0.089l0.09-0.089l0.455-0.455l1.236-1.235
	l0.456-0.455l0.09-0.09l-0.09-0.089l-0.456-0.457l-36.57-36.571l-0.456-0.455l-0.09-0.09l-0.09,0.09l-0.454,0.455l-1.236,1.236
	l-0.455,0.455l-0.09,0.09l0.09,0.09L152.02,134.014z M153.8,132.041l0.097,0.097l36.571,36.572l0.097,0.096l-0.097,0.096
	l-1.235,1.236l-0.096,0.096l-0.098-0.096l-36.571-36.571l-0.097-0.097l0.097-0.096l1.236-1.237L153.8,132.041z"/>
<linearGradient id="SVGID_74_" gradientUnits="userSpaceOnUse" x1="140.8076" y1="93.1362" x2="180.7949" y2="93.1362">
	<stop  offset="0" style="stop-color:#FFDE00"/>
	<stop  offset="0.5714" style="stop-color:#86AB71"/>
	<stop  offset="0.8791" style="stop-color:#EBABAB"/>
	<stop  offset="1" style="stop-color:#F37D21"/>
</linearGradient>
<path style="fill:url(#SVGID_74_);" d="M141.353,76.014l36.571,36.571l0.454,0.455l0.09,0.089l0.09-0.089l0.455-0.455l1.236-1.235
	l0.456-0.455l0.09-0.09l-0.09-0.089l-0.456-0.457l-36.57-36.571l-0.456-0.455l-0.09-0.09l-0.09,0.09l-0.454,0.455l-1.236,1.236
	l-0.455,0.455l-0.09,0.09l0.09,0.09L141.353,76.014z M143.133,74.041l0.097,0.097l36.571,36.572l0.097,0.096l-0.097,0.096
	l-1.235,1.236l-0.096,0.096l-0.098-0.096l-36.571-36.571l-0.097-0.097l0.097-0.096l1.236-1.237L143.133,74.041z"/>
<linearGradient id="SVGID_75_" gradientUnits="userSpaceOnUse" x1="155.1406" y1="49.4692" x2="195.1279" y2="49.4692">
	<stop  offset="0" style="stop-color:#FFDE00"/>
	<stop  offset="0.5714" style="stop-color:#86AB71"/>
	<stop  offset="0.8791" style="stop-color:#EBABAB"/>
	<stop  offset="1" style="stop-color:#F37D21"/>
</linearGradient>
<path style="fill:url(#SVGID_75_);" d="M155.686,32.347l36.571,36.571l0.454,0.455l0.09,0.089l0.09-0.089l0.455-0.455l1.236-1.235
	l0.456-0.455l0.09-0.09l-0.09-0.089l-0.456-0.457l-36.57-36.571l-0.456-0.455l-0.09-0.09l-0.09,0.09l-0.454,0.455l-1.236,1.236
	l-0.455,0.455l-0.09,0.09l0.09,0.09L155.686,32.347z M157.466,30.374l0.097,0.097l36.571,36.572l0.097,0.096l-0.097,0.096
	l-1.235,1.236l-0.096,0.096l-0.098-0.096l-36.571-36.571l-0.097-0.097l0.097-0.096l1.236-1.237L157.466,30.374z"/>
</svg>
